# xmcd
#
# Track frame offsets:
#	150
#	16557
#	33195
#	47967
#	65304
#	79776
#	98042
#	116370
#	135954
#	156537
#	174920
#	193632
#	211930
#	230524
#	247209
#	266161
#
# Disc length: 3809 seconds
# Revision: 0
# Processed by: cddbd v1.5.2PL0 Copyright (c) Steve Scherf et al.
# Submitted via: dBpowerAMP V12.0
#
DISCID=cf0edf10
DTITLE=Les Tubes Zouk 2011 - Les Tubes Zouk 2011
DYEAR=2011
DGENRE=World
TTITLE0=Destinée  - Je Veux de L'amour
TTITLE1=Jean Marie Ragald - Love de Vou
TTITLE2=Kalash Feat Lieutenant - Pran Pié
TTITLE3=Christiane Vallejo - Si Tu Savais
TTITLE4=Kate - Noire et Belle
TTITLE5=Jean Pierre Angeon - Ou Touché Mwen
TTITLE6=Yanina - C'est Comme Ca
TTITLE7=Stéphanie René - Laisse Moi Faire
TTITLE8=Kénédy- Enme Mwen an Kréyol
TTITLE9=Kaysha- Bien Plus Fort Que Mes Mots
TTITLE10=Tina - Di Mwen
TTITLE11=Harry Diboula - C'est Trop Tot
TTITLE12=Peggy - Comme un Trésor
TTITLE13=JFP - Tu Es Ma Faille
TTITLE14=Jade - Retiens Moi
TTITLE15=Poundem - Anlè Son
EXTD=
EXTT0=
EXTT1=
EXTT2=
EXTT3=
EXTT4=
EXTT5=
EXTT6=
EXTT7=
EXTT8=
EXTT9=
EXTT10=
EXTT11=
EXTT12=
EXTT13=
EXTT14=
EXTT15=
PLAYORDER=
